<?xml version="1.0" encoding="iso-8859-1"?>
<!-- Generator: Adobe Illustrator 19.0.0, SVG Export Plug-In . SVG Version: 6.00 Build 0)  -->
<svg version="1.1" id="Layer_1" xmlns="http://www.w3.org/2000/svg" xmlns:xlink="http://www.w3.org/1999/xlink" x="0px" y="0px"
	 viewBox="0 0 512 512" style="enable-background:new 0 0 512 512;" xml:space="preserve">
<circle style="fill:#F9B54C;" cx="256" cy="256" r="256"/>
<path style="fill:#F4A200;" d="M512,256c0-4.918-0.153-9.8-0.426-14.65L369.778,99.556l-20.423,49.25L142.222,415.892l95.447,95.448
	c6.056,0.429,12.166,0.66,18.33,0.66C397.384,512,512,397.384,512,256z"/>
<g>
	<polygon style="fill:#E6F3FF;" points="369.778,415.892 353.513,422.788 337.248,415.892 320.995,422.788 304.735,415.892 
		288.482,422.788 272.232,415.892 255.984,422.788 239.732,415.892 223.479,422.788 207.226,415.892 190.974,422.788 
		174.723,415.892 158.473,422.788 142.222,415.892 142.222,99.556 158.473,106.451 174.723,99.556 190.974,106.451 207.226,99.556 
		223.479,106.451 239.732,99.556 255.984,106.451 272.232,99.556 288.482,106.451 304.735,99.556 320.995,106.451 337.248,99.556 
		353.513,106.451 369.778,99.556 	"/>
	<polygon style="fill:#E6F3FF;" points="239.732,99.556 223.479,106.451 207.226,99.556 190.974,106.451 174.723,99.556 
		158.473,106.451 142.222,99.556 142.222,415.892 158.473,422.788 174.723,415.892 190.974,422.788 207.226,415.892 
		223.479,422.788 239.732,415.892 254.564,422.184 254.564,105.848 	"/>
</g>
<polygon style="fill:#CFDBE6;" points="353.513,106.451 337.248,99.556 320.995,106.451 304.735,99.556 288.482,106.451 
	272.232,99.556 255.984,106.451 254.564,105.848 254.564,422.184 255.984,422.788 272.232,415.892 288.482,422.788 304.735,415.892 
	320.995,422.788 337.248,415.892 353.513,422.788 369.778,415.892 369.778,99.556 "/>
<rect x="173.684" y="134.672" style="fill:#FD8469;" width="68.442" height="50.424"/>
<g>
	<rect x="250.07" y="134.249" style="fill:#B8C9D9;" width="91.257" height="6.896"/>
	<rect x="250.07" y="156.22" style="fill:#B8C9D9;" width="91.257" height="6.896"/>
	<rect x="250.07" y="178.2" style="fill:#B8C9D9;" width="91.257" height="6.896"/>
	<rect x="174.028" y="200.18" style="fill:#B8C9D9;" width="167.305" height="6.896"/>
	<rect x="174.028" y="222.16" style="fill:#B8C9D9;" width="167.305" height="6.896"/>
	<rect x="174.028" y="244.14" style="fill:#B8C9D9;" width="167.305" height="6.896"/>
</g>
<rect x="272.894" y="263.102" style="fill:#FC6F58;" width="68.442" height="50.424"/>
<g>
	<rect x="173.684" y="262.672" style="fill:#B8C9D9;" width="91.257" height="6.896"/>
	<rect x="173.684" y="284.651" style="fill:#B8C9D9;" width="91.257" height="6.896"/>
	<rect x="173.684" y="306.631" style="fill:#B8C9D9;" width="91.257" height="6.896"/>
	<rect x="173.684" y="328.611" style="fill:#B8C9D9;" width="167.305" height="6.896"/>
	<rect x="173.684" y="350.591" style="fill:#B8C9D9;" width="167.305" height="6.896"/>
	<rect x="173.684" y="372.57" style="fill:#B8C9D9;" width="167.305" height="6.896"/>
</g>
<g>
	<rect x="254.569" y="134.249" style="fill:#9DB0C1;" width="86.764" height="6.896"/>
	<rect x="254.569" y="156.22" style="fill:#9DB0C1;" width="86.764" height="6.896"/>
	<rect x="254.569" y="178.2" style="fill:#9DB0C1;" width="86.764" height="6.896"/>
	<rect x="254.569" y="200.18" style="fill:#9DB0C1;" width="86.764" height="6.896"/>
	<rect x="254.569" y="222.16" style="fill:#9DB0C1;" width="86.764" height="6.896"/>
	<rect x="254.569" y="244.14" style="fill:#9DB0C1;" width="86.764" height="6.896"/>
	<rect x="254.569" y="262.672" style="fill:#9DB0C1;" width="10.378" height="6.896"/>
	<rect x="254.569" y="284.651" style="fill:#9DB0C1;" width="10.378" height="6.896"/>
	<rect x="254.569" y="306.631" style="fill:#9DB0C1;" width="10.378" height="6.896"/>
	<rect x="254.569" y="328.611" style="fill:#9DB0C1;" width="86.419" height="6.896"/>
	<rect x="254.569" y="350.591" style="fill:#9DB0C1;" width="86.419" height="6.896"/>
	<rect x="254.569" y="372.57" style="fill:#9DB0C1;" width="86.419" height="6.896"/>
</g>
<g>
</g>
<g>
</g>
<g>
</g>
<g>
</g>
<g>
</g>
<g>
</g>
<g>
</g>
<g>
</g>
<g>
</g>
<g>
</g>
<g>
</g>
<g>
</g>
<g>
</g>
<g>
</g>
<g>
</g>
</svg>
