<?xml version="1.0" encoding="iso-8859-1"?>
<!-- Generator: Adobe Illustrator 19.0.0, SVG Export Plug-In . SVG Version: 6.00 Build 0)  -->
<svg version="1.1" id="Layer_1" xmlns="http://www.w3.org/2000/svg" xmlns:xlink="http://www.w3.org/1999/xlink" x="0px" y="0px"
	 viewBox="0 0 512 512" style="enable-background:new 0 0 512 512;" xml:space="preserve">
<path style="fill:#E6EAEA;" d="M503.983,4.276H8.017C3.589,4.276,0,7.865,0,12.292v487.415c0,4.427,3.589,8.017,8.017,8.017h495.967
	c4.427,0,8.017-3.589,8.017-8.017V12.292C512,7.865,508.411,4.276,503.983,4.276z"/>
<path style="fill:#9BAAAB;" d="M503.983,4.276H8.017C3.589,4.276,0,7.865,0,12.292v110.63h512V12.292
	C512,7.865,508.411,4.276,503.983,4.276z"/>
<path style="fill:#CDD4D5;" d="M8.017,4.276C3.589,4.276,0,7.865,0,12.292v487.415c0,4.427,3.589,8.017,8.017,8.017H256V4.276H8.017
	z"/>
<g>
	<path style="fill:#687F82;" d="M8.017,4.276C3.589,4.276,0,7.865,0,12.292v110.63h256V4.276H8.017z"/>
	<path style="fill:#687F82;" d="M435.574,199.883H72.15c-4.427,0-8.017-3.589-8.017-8.017s3.589-8.017,8.017-8.017h363.424
		c4.427,0,8.017,3.589,8.017,8.017S440.001,199.883,435.574,199.883z"/>
	<path style="fill:#687F82;" d="M435.574,336.701H72.15c-4.427,0-8.017-3.589-8.017-8.017c0-4.427,3.589-8.017,8.017-8.017h363.424
		c4.427,0,8.017,3.589,8.017,8.017C443.591,333.112,440.001,336.701,435.574,336.701z"/>
	<path style="fill:#687F82;" d="M151.155,473.52H72.15c-4.427,0-8.017-3.589-8.017-8.017s3.589-8.017,8.017-8.017h79.005
		c4.427,0,8.017,3.589,8.017,8.017S155.583,473.52,151.155,473.52z"/>
</g>
<path style="fill:#4ACFD9;" d="M264.551,29.929c-18.566,0-33.67,15.105-33.67,33.67s15.105,33.67,33.67,33.67
	c18.566,0,33.67-15.105,33.67-33.67S283.117,29.929,264.551,29.929z"/>
<path style="fill:#FF8C29;" d="M170.489,29.929c-18.566,0-33.67,15.105-33.67,33.67s15.105,33.67,33.67,33.67
	s33.67-15.105,33.67-33.67S189.054,29.929,170.489,29.929z"/>
<path style="fill:#F0353D;" d="M76.426,29.929c-18.566,0-33.67,15.105-33.67,33.67s15.105,33.67,33.67,33.67
	s33.67-15.105,33.67-33.67S94.992,29.929,76.426,29.929z"/>
<g>
	<path style="fill:#FFFFFF;" d="M427.023,54.514H332.96c-4.427,0-8.017-3.589-8.017-8.017s3.589-8.017,8.017-8.017h94.063
		c4.427,0,8.017,3.589,8.017,8.017S431.45,54.514,427.023,54.514z"/>
	<path style="fill:#FFFFFF;" d="M469.779,54.514h-17.102c-4.427,0-8.017-3.589-8.017-8.017s3.589-8.017,8.017-8.017h17.102
		c4.427,0,8.017,3.589,8.017,8.017S474.206,54.514,469.779,54.514z"/>
</g>
<path style="fill:#FD6A33;" d="M480.455,214.535l-84.652-84.652c-3.131-3.131-8.207-3.131-11.338,0L160.329,354.019
	c-1.504,1.503-2.348,3.542-2.348,5.668s0.844,4.165,2.348,5.668l84.652,84.652c1.503,1.504,3.542,2.348,5.668,2.348
	c2.126,0,4.165-0.844,5.668-2.348l224.135-224.136C483.586,222.742,483.586,217.666,480.455,214.535z"/>
<path style="fill:#4ACFD9;" d="M405.052,235.519l-30.233-30.233c-3.131-3.131-8.207-3.131-11.337,0L187.54,381.229
	c-3.131,3.131-3.131,8.207,0,11.337l30.233,30.233c1.565,1.565,3.617,2.348,5.668,2.348s4.103-0.782,5.668-2.348l175.943-175.943
	C408.184,243.726,408.184,238.65,405.052,235.519z"/>
<path style="fill:#FFBA7E;" d="M158.136,358.116l-21.163,105.815c-0.526,2.628,0.297,5.346,2.192,7.241
	c1.518,1.518,3.564,2.348,5.668,2.348c0.523,0,1.049-0.051,1.572-0.156l105.815-21.163c2.899-0.579,5.244-2.709,6.1-5.538
	l-94.648-94.648C160.845,352.872,158.717,355.217,158.136,358.116z"/>
<path style="fill:#365558;" d="M137.013,463.735c-0.359,1.797-0.195,3.691,0.632,5.326c1.436,2.844,4.255,4.457,7.19,4.457
	c0.523,0,1.049-0.051,1.572-0.156l47.133-9.427l-47.495-45.355L137.013,463.735z"/>
<path style="fill:#CDD4D5;" d="M395.803,129.883c-1.503-1.504-3.542-2.348-5.668-2.348s-4.165,0.844-5.668,2.348l-60.465,60.466
	l95.989,95.989l60.466-60.465c1.504-1.503,2.348-3.542,2.348-5.668c0-2.126-0.844-4.165-2.348-5.668L395.803,129.883z"/>
<path style="fill:#FFFFFF;" d="M369.303,202.021c-2.051,0-4.103-0.782-5.668-2.348c-3.131-3.131-3.131-8.207,0-11.337l19.24-19.24
	c3.131-3.131,8.207-3.131,11.337,0c3.131,3.131,3.131,8.207,0,11.337l-19.24,19.24C373.406,201.238,371.354,202.021,369.303,202.021
	z"/>
<g>
</g>
<g>
</g>
<g>
</g>
<g>
</g>
<g>
</g>
<g>
</g>
<g>
</g>
<g>
</g>
<g>
</g>
<g>
</g>
<g>
</g>
<g>
</g>
<g>
</g>
<g>
</g>
<g>
</g>
</svg>
