<?xml version="1.0" encoding="iso-8859-1"?>
<!-- Generator: Adobe Illustrator 19.0.0, SVG Export Plug-In . SVG Version: 6.00 Build 0)  -->
<svg version="1.1" id="Capa_1" xmlns="http://www.w3.org/2000/svg" xmlns:xlink="http://www.w3.org/1999/xlink" x="0px" y="0px"
	 viewBox="0 0 512 512" style="enable-background:new 0 0 512 512;" xml:space="preserve">
<rect x="10" y="37" style="fill:#F1F2F2;" width="492" height="438"/>
<rect x="328.13" y="283" style="fill:#59AA33;" width="120" height="192"/>
<rect x="64" y="283" style="fill:#12ADDD;" width="220" height="192"/>
<rect x="64" y="155" style="fill:#779DFC;" width="384" height="88"/>
<rect x="10" y="37" style="fill:#A0E3F2;" width="492" height="72"/>
<path d="M104.006,381h139.988c5.523,0,10-4.478,10-10s-4.477-10-10-10H104.006c-5.523,0-10,4.478-10,10S98.483,381,104.006,381z"/>
<path d="M104.006,343h139.988c5.523,0,10-4.478,10-10s-4.477-10-10-10H104.006c-5.523,0-10,4.478-10,10S98.483,343,104.006,343z"/>
<path d="M104.006,419h139.988c5.523,0,10-4.478,10-10s-4.477-10-10-10H104.006c-5.523,0-10,4.478-10,10S98.483,419,104.006,419z"/>
<path d="M502,27H10C4.477,27,0,31.478,0,37v438c0,5.522,4.477,10,10,10h492c5.523,0,10-4.478,10-10V37C512,31.478,507.523,27,502,27
	z M492,47v54.862c-1.804-1.768-4.271-2.862-6.997-2.862H21.004c-0.339,0-0.674,0.018-1.004,0.051V47H492z M458.127,465V283
	c0-5.522-4.477-10-10-10h-120c-5.523,0-10,4.478-10,10v107.5c0,5.522,4.477,10,10,10s10-4.478,10-10V293h100v172H294V283
	c0-5.522-4.477-10-10-10H64c-5.523,0-10,4.478-10,10v144c0,5.522,4.477,10,10,10s10-4.478,10-10V293h200v172H20V118.949
	c0.33,0.033,0.665,0.051,1.004,0.051h463.999c2.726,0,5.193-1.094,6.997-2.862V465H458.127z"/>
<path d="M222.065,83H448c5.523,0,10-4.478,10-10s-4.477-10-10-10H222.065c-5.523,0-10,4.478-10,10S216.542,83,222.065,83z"/>
<path d="M104,83c2.63,0,5.21-1.07,7.07-2.931C112.93,78.21,114,75.63,114,73s-1.07-5.21-2.93-7.07S106.63,63,104,63
	s-5.21,1.069-7.07,2.93C95.07,67.79,94,70.37,94,73s1.07,5.21,2.93,7.069C98.79,81.93,101.37,83,104,83z"/>
<path d="M64,83c2.63,0,5.21-1.07,7.07-2.931C72.93,78.21,74,75.63,74,73s-1.07-5.21-2.93-7.07S66.63,63,64,63
	c-2.63,0-5.21,1.069-7.07,2.93C55.07,67.79,54,70.37,54,73s1.07,5.21,2.93,7.069C58.79,81.93,61.37,83,64,83z"/>
<path d="M144,83c2.63,0,5.21-1.07,7.07-2.931C152.93,78.21,154,75.63,154,73s-1.07-5.21-2.93-7.07S146.63,63,144,63
	s-5.21,1.069-7.07,2.93C135.07,67.79,134,70.37,134,73s1.07,5.21,2.93,7.069C138.79,81.93,141.37,83,144,83z"/>
<path d="M448,145H64c-5.523,0-10,4.478-10,10v88c0,5.522,4.477,10,10,10h384c5.523,0,10-4.478,10-10v-88
	C458,149.478,453.523,145,448,145z M438,233H74v-68h364V233z"/>
<path d="M328.13,437c2.63,0,5.2-1.07,7.07-2.931c1.86-1.859,2.93-4.439,2.93-7.069s-1.07-5.21-2.93-7.07
	c-1.86-1.86-4.44-2.93-7.07-2.93s-5.21,1.069-7.07,2.93c-1.87,1.86-2.93,4.44-2.93,7.07s1.06,5.21,2.93,7.069
	C322.92,435.93,325.5,437,328.13,437z"/>
<g>
</g>
<g>
</g>
<g>
</g>
<g>
</g>
<g>
</g>
<g>
</g>
<g>
</g>
<g>
</g>
<g>
</g>
<g>
</g>
<g>
</g>
<g>
</g>
<g>
</g>
<g>
</g>
<g>
</g>
</svg>
