<?xml version="1.0" encoding="iso-8859-1"?>
<!-- Generator: Adobe Illustrator 19.0.0, SVG Export Plug-In . SVG Version: 6.00 Build 0)  -->
<svg version="1.1" id="Capa_1" xmlns="http://www.w3.org/2000/svg" xmlns:xlink="http://www.w3.org/1999/xlink" x="0px" y="0px"
	 viewBox="0 0 496 496" style="enable-background:new 0 0 496 496;" xml:space="preserve">
<g>
	<path style="fill:#FFCB57;" d="M272,176h-8v70.232c4.88,4.392,8,10.688,8,17.768c0,13.256-10.744,24-24,24s-24-10.744-24-24
		c0-7.08,3.12-13.376,8-17.768V176h-8l-40,96l32,64h64l32-64L272,176z"/>
	<rect x="360" y="240" style="fill:#FFCB57;" width="80" height="96"/>
	<rect x="56" y="240" style="fill:#FFCB57;" width="80" height="96"/>
</g>
<g>
	<polygon style="fill:#3F3A34;" points="480,96 480,480 16,480 16,96 0,96 0,496 496,496 496,96 	"/>
	<path style="fill:#3F3A34;" d="M277.336,168H256v81.784l2.648,2.384C262.096,255.28,264,259.488,264,264c0,8.824-7.176,16-16,16
		s-16-7.176-16-16c0-4.512,1.904-8.72,5.352-11.832l2.648-2.384V168h-21.336L175.2,272.304l33.64,67.272l14.312-7.16l-30.36-60.728
		L224,196.8v46.16c-5.12,5.824-8,13.312-8,21.04c0,17.648,14.352,32,32,32s32-14.352,32-32c0-7.728-2.88-15.216-8-21.04V196.8
		l31.208,74.896l-30.36,60.728l14.312,7.16l33.64-67.272L277.336,168z"/>
	<polygon style="fill:#3F3A34;" points="200,392 200,464 296,464 296,392 280,392 280,448 216,448 216,392 	"/>
	<path style="fill:#3F3A34;" d="M96,216c13.232,0,24-10.768,24-24c0-4.336-1.24-8.344-3.264-11.856
		c30.096-28.248,68.288-46,109.208-50.696C229.624,137.992,238.12,144,248,144s18.376-6.008,22.048-14.56
		c40.92,4.696,79.112,22.448,109.208,50.704C377.24,183.656,376,187.664,376,192c0,13.232,10.768,24,24,24s24-10.768,24-24
		s-10.768-24-24-24c-3.032,0-5.904,0.624-8.576,1.648c-33-31.488-75.208-51.208-120.448-56.208C268.104,103.408,258.944,96,248,96
		s-20.104,7.408-22.976,17.448c-45.24,4.992-87.448,24.72-120.448,56.208C101.904,168.624,99.032,168,96,168
		c-13.232,0-24,10.768-24,24S82.768,216,96,216z M408,192c0,4.408-3.592,8-8,8s-8-3.592-8-8s3.592-8,8-8S408,187.592,408,192z
		 M248,112c4.408,0,8,3.592,8,8c0,4.408-3.592,8-8,8s-8-3.592-8-8S243.592,112,248,112z M96,184c4.408,0,8,3.592,8,8s-3.592,8-8,8
		s-8-3.592-8-8S91.592,184,96,184z"/>
	<path style="fill:#3F3A34;" d="M352,344h96V232h-96V344z M368,248h64v80h-64V248z"/>
	<rect x="384" y="264" style="fill:#3F3A34;" width="32" height="16"/>
	<rect x="384" y="296" style="fill:#3F3A34;" width="32" height="16"/>
	<path style="fill:#3F3A34;" d="M144,232H48v112h96V232z M128,328H64v-80h64V328z"/>
	<rect x="80" y="264" style="fill:#3F3A34;" width="32" height="16"/>
	<rect x="80" y="296" style="fill:#3F3A34;" width="32" height="16"/>
</g>
<g>
	<path style="fill:#E56565;" d="M496,80H0V0h496V80z M16,64h464V16H16V64z"/>
	<rect x="32" y="32" style="fill:#E56565;" width="16" height="16"/>
	<rect x="64" y="32" style="fill:#E56565;" width="16" height="16"/>
	<rect x="96" y="32" style="fill:#E56565;" width="16" height="16"/>
	<path style="fill:#E56565;" d="M312,376H184v-48h128V376z M200,360h96v-16h-96V360z"/>
</g>
<g>
</g>
<g>
</g>
<g>
</g>
<g>
</g>
<g>
</g>
<g>
</g>
<g>
</g>
<g>
</g>
<g>
</g>
<g>
</g>
<g>
</g>
<g>
</g>
<g>
</g>
<g>
</g>
<g>
</g>
</svg>
