<?xml version="1.0" encoding="iso-8859-1"?>
<!-- Generator: Adobe Illustrator 19.0.0, SVG Export Plug-In . SVG Version: 6.00 Build 0)  -->
<svg version="1.1" id="Layer_1" xmlns="http://www.w3.org/2000/svg" xmlns:xlink="http://www.w3.org/1999/xlink" x="0px" y="0px"
	 viewBox="0 0 496 496" style="enable-background:new 0 0 496 496;" xml:space="preserve">
<path style="fill:#5FBF02;" d="M496,476.8c0,10.4-8.8,19.2-19.2,19.2H19.2C8.8,496,0,487.2,0,476.8V19.2C0,8.8,8.8,0,19.2,0h457.6
	C487.2,0,496,8.8,496,19.2V476.8z"/>
<path style="fill:#3EB500;" d="M463.2,480c9.6,0,16.8-8.8,16.8-18.4V80H16"/>
<path style="fill:#FDFFFF;" d="M395.2,40c0,9.6-8,16-17.6,16H32c-9.6,0-8-6.4-8-16l0,0c0-9.6-1.6-16,8-16h345.6
	C387.2,24,395.2,30.4,395.2,40L395.2,40z"/>
<path style="fill:#E6F3F4;" d="M24,40.8L24,40.8c0-9.6-1.6-16.8,8-16.8h345.6c9.6,0,17.6,7.2,17.6,16.8l0,0"/>
<circle style="opacity:0.4;fill:#B1BCBC;enable-background:new    ;" cx="426.4" cy="41.6" r="8.8"/>
<circle style="fill:#FFFFFF;" cx="426.4" cy="37.6" r="8.8"/>
<path style="fill:#E8EFEE;" d="M420,31.2c3.2-3.2,9.6-3.2,12.8,0c3.2,3.2,3.2,9.6,0,12.8"/>
<circle style="opacity:0.4;fill:#B1BCBC;enable-background:new    ;" cx="462.4" cy="41.6" r="8.8"/>
<circle style="fill:#FFFFFF;" cx="462.4" cy="37.6" r="8.8"/>
<path style="fill:#E8EFEE;" d="M456,31.2c3.2-3.2,9.6-3.2,12.8,0c3.2,3.2,3.2,9.6,0,12.8"/>
<path style="fill:#5FBF02;" d="M100.8,32l-0.8-0.8h-2.4c-0.8,0-0.8,0-0.8,0.8l-1.6,6.4l0,0l0,0L92.8,32c-0.8,0-0.8,0-1.6,0h-2.4
	C88,32,88,32,88,32.8L85.6,40l0,0l0,0L84,33.6c0-1.6,0-1.6-0.8-1.6h-2.4H80h-0.8h-2.4C76,32,76,32,76,32.8l-1.6,6.4l0,0l0,0L72,32.8
	c0-0.8-0.8-0.8-1.6-0.8h-1.6c-0.8,0-0.8,0-1.6,0.8l-1.6,6.4l0,0l0,0l-2.4-6.4c0-0.8,0-0.8-0.8-0.8H60h-0.8c0,0,0,0-0.8,0H56
	c0,0-0.8,0-0.8,0.8l-1.6,6.4l0,0l0,0l-2.4-6.4c0-0.8-0.8-0.8-1.6-0.8H48c-0.8,0-0.8,0-0.8,0.8l-2.4,6.4l0,0l0,0l-1.6-6.4
	C42.4,32,42.4,32,41.6,32h-2.4c0,0-0.8,0-0.8,0.8v0.8l4,13.6c0,0.8,0.8,0.8,0.8,0.8h2.4c0.8,0,0.8,0,0.8-0.8l2.4-7.2c0,0,0,0,0-0.8
	c0,0,0,0,0,0.8l2.4,6.4c0,0.8,0.8,0.8,0.8,0.8h2.4c0.8,0,0.8,0,0.8-0.8l4-12l3.2,12c0,0.8,0.8,0.8,0.8,0.8h2.4c0.8,0,0.8,0,0.8-0.8
	l3.2-6.4c0,0,0,0,0-0.8c0,0,0,0,0,0.8l2.4,6.4c0,0.8,0.8,0.8,0.8,0.8h2.4c0.8,0,0.8,0,0.8-0.8l4-12l3.2,12c0,0.8,0.8,0.8,0.8,0.8
	h2.4c0.8,0,0.8,0,0.8-0.8l3.2-6.4c0,0,0,0,0-0.8c0,0,0,0,0,0.8l2.4,6.4c0,0.8,0.8,0.8,0.8,0.8H96c0.8,0,0.8,0,0.8-0.8l4-13.6
	C101.6,32.8,101.6,32,100.8,32z"/>
<g>
	<path style="fill:#3BA000;" d="M340,344H184c-4.8,0-9.6-1.6-11.2-6.4L139.2,216h-16.8c-6.4,0-11.2-5.6-11.2-12s4.8-12,11.2-12H148
		c4.8,0,9.6,1.6,11.2,6.4L192,320h139.2l25.6-80H196c-6.4,0-11.2-5.6-11.2-12s4.8-12,11.2-12h176.8c4,0,7.2,3.2,8.8,6.4
		c2.4,3.2,2.4,8,1.6,11.2l-32.8,101.6C349.6,340,344.8,344,340,344z"/>
	<circle style="fill:#3BA000;" cx="195.2" cy="382.4" r="20"/>
	<circle style="fill:#3BA000;" cx="300.8" cy="382.4" r="20"/>
</g>
<g>
	<path style="fill:#FFFFFF;" d="M340,328H184c-4.8,0-9.6-1.6-11.2-6.4L139.2,200h-16.8c-6.4,0-11.2-5.6-11.2-12s4.8-12,11.2-12H148
		c4.8,0,9.6,1.6,11.2,6.4L192,304h139.2l25.6-72H196c-6.4,0-11.2-5.6-11.2-12s4.8-12,11.2-12h176.8c4,0,7.2,0.8,8.8,4
		c2.4,3.2,2.4,6.4,1.6,9.6l-32.8,100C349.6,326.4,344.8,328,340,328z"/>
	<circle style="fill:#FFFFFF;" cx="195.2" cy="368.8" r="20"/>
	<circle style="fill:#FFFFFF;" cx="300.8" cy="368.8" r="20"/>
</g>
<g>
</g>
<g>
</g>
<g>
</g>
<g>
</g>
<g>
</g>
<g>
</g>
<g>
</g>
<g>
</g>
<g>
</g>
<g>
</g>
<g>
</g>
<g>
</g>
<g>
</g>
<g>
</g>
<g>
</g>
</svg>
