<?xml version="1.0" encoding="UTF-8"?>
<svg xmlns="http://www.w3.org/2000/svg" xmlns:xlink="http://www.w3.org/1999/xlink" viewBox="0 0 64 64" version="1.1" width="512px" height="512px">
<g id="surface1">
<path style=" fill:#ACE3FF;" d="M 59 33 C 59 48.464844 46.464844 61 31 61 C 15.535156 61 3 48.464844 3 33 C 3 17.535156 15.535156 5 31 5 C 46.464844 5 59 17.535156 59 33 Z "/>
<path style=" fill:#85CBF8;" d="M 31 55 C 18.851563 55 9 45.148438 9 33 C 9 20.851563 18.851563 11 31 11 C 43.148438 11 53 20.851563 53 33 C 53 45.148438 43.148438 55 31 55 Z "/>
<path style=" fill:#FAEFDE;" d="M 7 21 L 15 21 L 24.109375 44.558594 L 29.78125 31.449219 L 25.78125 21.339844 L 34.671875 20.898438 L 43.109375 44.460938 L 48.109375 31.460938 L 46.550781 25.351563 L 44.660156 20.128906 C 44.660156 20.128906 45.441406 15.570313 47.550781 15.570313 C 49.660156 15.570313 53.21875 15 54.109375 17 C 55 19 54.890625 22.890625 53.550781 27.109375 C 52.210938 31.328125 41.21875 58.671875 41.21875 58.671875 L 40.328125 58.78125 L 31.558594 36 L 22.109375 59.328125 L 21.109375 59 Z "/>
<path style=" fill:#8D6C9F;" d="M 55 16.78125 C 54.929688 16.628906 54.847656 16.480469 54.761719 16.339844 C 54.574219 16.058594 54.359375 15.796875 54.121094 15.558594 C 48.148438 7.65625 38.554688 3.351563 28.679688 4.136719 C 18.804688 4.925781 10.015625 10.699219 5.371094 19.449219 L 5.320313 19.550781 C 1.429688 26.992188 0.957031 35.757813 4.027344 43.578125 C 7.097656 51.394531 13.40625 57.5 21.320313 60.308594 L 21.441406 60.308594 C 33.210938 64.367188 46.253906 60.457031 53.855469 50.597656 C 61.457031 40.738281 61.917969 27.128906 55 16.78125 Z M 49.5 35.441406 L 40.929688 57.441406 L 32.359375 35.441406 C 32.324219 35.367188 32.28125 35.300781 32.230469 35.238281 C 32.1875 35.132813 32.105469 35.046875 32 35 C 31.941406 34.953125 31.878906 34.914063 31.808594 34.878906 C 31.761719 34.875 31.710938 34.875 31.660156 34.878906 C 31.519531 34.828125 31.363281 34.828125 31.21875 34.878906 C 31.171875 34.875 31.125 34.875 31.078125 34.878906 C 31.007813 34.914063 30.941406 34.957031 30.878906 35.011719 C 30.789063 35.054688 30.710938 35.128906 30.671875 35.21875 C 30.617188 35.28125 30.574219 35.347656 30.539063 35.421875 L 21.96875 57.421875 L 8.128906 22 L 14.308594 22 L 23.308594 45.519531 L 23.308594 45.601563 C 23.351563 45.675781 23.402344 45.746094 23.460938 45.808594 L 23.539063 45.890625 C 23.605469 45.945313 23.679688 45.992188 23.761719 46.03125 L 23.820313 46.03125 C 24.03125 46.113281 24.269531 46.113281 24.480469 46.03125 L 24.539063 46.03125 C 24.621094 45.992188 24.699219 45.945313 24.769531 45.890625 L 24.851563 45.808594 C 24.910156 45.746094 24.960938 45.675781 25 45.601563 L 25 45.519531 L 30.410156 31.648438 L 30.410156 31.601563 C 30.410156 31.601563 30.410156 31.539063 30.410156 31.519531 C 30.464844 31.363281 30.464844 31.195313 30.410156 31.039063 C 30.414063 30.988281 30.414063 30.933594 30.410156 30.878906 L 27.128906 22 L 33.308594 22 L 42.308594 45.519531 L 42.308594 45.601563 C 42.351563 45.675781 42.402344 45.746094 42.460938 45.808594 L 42.539063 45.890625 C 42.605469 45.945313 42.679688 45.992188 42.761719 46.03125 L 42.820313 46.03125 C 42.925781 46.070313 43.039063 46.089844 43.148438 46.089844 L 43.300781 46.089844 C 43.367188 46.097656 43.433594 46.097656 43.5 46.089844 C 43.605469 46.074219 43.707031 46.046875 43.800781 46 C 43.898438 45.953125 43.972656 45.875 44.019531 45.78125 C 44.070313 45.722656 44.113281 45.65625 44.148438 45.589844 L 48.800781 33.640625 C 49.871094 30.121094 48.53125 27.5 47.351563 25.191406 C 46.351563 23.191406 45.480469 21.539063 45.949219 19.441406 C 46.253906 17.671875 47.648438 16.289063 49.421875 16 C 50.570313 15.757813 51.765625 16.070313 52.648438 16.839844 C 52.851563 17.109375 53.050781 17.390625 53.238281 17.671875 C 54.730469 20.910156 51.800781 30.148438 49.5 35.441406 Z M 31 6 C 38.195313 6 45.09375 8.882813 50.148438 14 C 49.789063 14 49.425781 14.03125 49.070313 14.089844 C 46.523438 14.515625 44.507813 16.46875 44 19 C 43.371094 21.808594 44.488281 24 45.570313 26.089844 C 46.648438 28.179688 47.730469 30.300781 46.910156 32.96875 L 43.21875 42.429688 L 35.449219 22 L 37 22 C 37.550781 22 38 21.550781 38 21 C 38 20.449219 37.550781 20 37 20 L 23 20 C 22.449219 20 22 20.449219 22 21 C 22 21.550781 22.449219 22 23 22 L 25 22 L 28.601563 31.238281 L 24.238281 42.390625 L 16.449219 22 L 19 22 C 19.550781 22 20 21.550781 20 21 C 20 20.449219 19.550781 20 19 20 L 7.351563 20 C 12.089844 11.371094 21.152344 6.003906 31 6 Z M 4 33 C 3.996094 29.371094 4.726563 25.777344 6.148438 22.441406 L 19.851563 57.578125 C 10.203125 53.207031 4.003906 43.59375 4 33 Z M 23.5 58.929688 L 31.441406 38.558594 L 39.289063 58.691406 C 34.167969 60.347656 28.667969 60.429688 23.5 58.929688 Z M 43.230469 57.058594 L 51.359375 36.199219 C 51.839844 35.089844 55.011719 27.621094 55.570313 21.800781 C 61.5625 34.964844 56.117188 50.511719 43.21875 57.058594 Z "/>
<path style=" fill:#8D6C9F;" d="M 31 13 C 31.550781 13 32 12.550781 32 12 L 32 10 C 32 9.449219 31.550781 9 31 9 C 30.449219 9 30 9.449219 30 10 L 30 12 C 30 12.550781 30.449219 13 31 13 Z "/>
<path style=" fill:#8D6C9F;" d="M 25 12.921875 C 25.082031 13.277344 25.351563 13.558594 25.707031 13.65625 C 26.058594 13.753906 26.433594 13.652344 26.691406 13.390625 C 26.945313 13.128906 27.039063 12.75 26.929688 12.398438 L 26.410156 10.46875 C 26.253906 9.953125 25.714844 9.65625 25.195313 9.796875 C 24.671875 9.9375 24.359375 10.464844 24.480469 10.988281 Z "/>
<path style=" fill:#8D6C9F;" d="M 40.261719 15.480469 C 40.492188 15.613281 40.765625 15.648438 41.023438 15.582031 C 41.277344 15.511719 41.5 15.339844 41.628906 15.109375 L 42.628906 13.378906 C 42.828125 13.070313 42.839844 12.675781 42.660156 12.355469 C 42.480469 12.035156 42.140625 11.839844 41.773438 11.84375 C 41.40625 11.847656 41.070313 12.054688 40.898438 12.378906 L 39.898438 14.109375 C 39.765625 14.339844 39.726563 14.613281 39.796875 14.871094 C 39.863281 15.125 40.03125 15.347656 40.261719 15.480469 Z "/>
<path style=" fill:#8D6C9F;" d="M 20.398438 15.109375 C 20.6875 15.5625 21.28125 15.707031 21.746094 15.4375 C 22.207031 15.171875 22.378906 14.585938 22.128906 14.109375 L 21.128906 12.378906 C 20.84375 11.929688 20.25 11.78125 19.785156 12.050781 C 19.320313 12.320313 19.152344 12.90625 19.398438 13.378906 Z "/>
<path style=" fill:#8D6C9F;" d="M 35.800781 13.628906 C 36.328125 13.757813 36.859375 13.441406 37 12.921875 L 37.539063 11 C 37.664063 10.476563 37.347656 9.949219 36.828125 9.808594 C 36.304688 9.667969 35.769531 9.964844 35.609375 10.480469 L 35.089844 12.410156 C 34.949219 12.941406 35.269531 13.488281 35.800781 13.628906 Z "/>
</g>
</svg>
